<svg xmlns="http://www.w3.org/2000/svg" viewBox="0 0 174 80" width="174" height="80" role="img" aria-label="Portfolio">
  <style>text{font-family:-apple-system, BlinkMacSystemFont, 'Segoe UI', Inter, Helvetica, Arial, sans-serif;font-weight:600}</style>
  <defs><filter id="soft" x="-20%" y="-20%" width="140%" height="160%"><feGaussianBlur stdDeviation="4"/></filter>
    <linearGradient id="skirt-orange" x1="0" y1="0" x2="0" y2="1">
      <stop offset="0" stop-color="#c25a16"/>
      <stop offset="1" stop-color="#79380e"/>
    </linearGradient>
    <linearGradient id="top-orange" x1="0" y1="0" x2="0" y2="1">
      <stop offset="0" stop-color="#f48a44"/>
      <stop offset="0.8" stop-color="#f2701b"/>
    </linearGradient></defs>
    <g class="" style="animation-delay:0.00s">
      <rect x="6" y="9" width="162" height="64" rx="13" fill="#000" opacity=".5" filter="url(#soft)"/>
      <rect x="4" y="2" width="166" height="64" rx="13" fill="url(#skirt-orange)"/>
      <rect x="9" y="5" width="156" height="49" rx="10" fill="url(#top-orange)"/>
      <rect x="9.5" y="5.5" width="155" height="48" rx="9.5" fill="none" stroke="#fff" stroke-opacity=".22"/>
      <g transform="translate(28.0 18.6) scale(0.910)" fill="#ffffff"><path d="M20 5H4c-1.1 0-1.99.9-1.99 2L2 17c0 1.1.9 2 2 2h16c1.1 0 2-.9 2-2V7c0-1.1-.9-2-2-2zm-9 3h2v2h-2V8zm0 3h2v2h-2v-2zM8 8h2v2H8V8zm0 3h2v2H8v-2zm-1 2H5v-2h2v2zm0-3H5V8h2v2zm9 7H8v-2h8v2zm0-4h-2v-2h2v2zm0-3h-2V8h2v2zm3 3h-2v-2h2v2zm0-3h-2V8h2v2z"/></g>
      <text x="57.8" y="36.3" fill="#ffffff" font-size="19">Portfolio</text>
    </g>
</svg>
